<svg width="300" height="305" viewBox="0 0 300 305" fill="none" xmlns="http://www.w3.org/2000/svg">
<g clip-path="url(#clip0)">
<g clip-path="url(#clip1)">
<path d="M0 0L121.324 121.324L112.5 57.3529L103.676 2.20588L0 0Z" fill="#7EFF9B"/>
<path d="M236.029 66.1765L300 61.7647L242.647 0L236.029 66.1765Z" fill="#7EFF9B"/>
<path d="M231.618 116.912L236.029 66.1765L242.647 0L207.353 35.2941L198.535 96.9455L225 123.377L231.618 116.912Z" fill="#7EFF9B"/>
<path d="M207.353 35.2941L172.102 70.5455L198.535 96.9455L207.353 35.2941Z" fill="#7EFF9B"/>
<path d="M121.323 121.324L39.7058 304.412L85.1152 251.482L130.147 194.118L121.323 121.324Z" fill="#7EFF9B"/>
<path d="M39.7058 304.412L132.353 213.895L130.147 194.118L85.1152 251.482L39.7058 304.412Z" fill="#7EFF9B"/>
<path d="M112.5 57.353L121.323 121.324L130.147 194.118L185.294 123.377L112.5 57.353Z" fill="#7EFF9B"/>
<path d="M172.059 70.5882L103.677 2.20587L112.5 57.3529L185.295 123.377L130.147 194.118L132.353 213.895L178.677 168.636L225 123.377L198.529 96.9829L172.059 70.5882Z" fill="#7EFF9B"/>
<path d="M231.618 116.912L236.029 66.1765L242.647 0L207.353 35.2941L198.535 96.9455L225 123.377L231.618 116.912Z" fill="#334B46" fill-opacity="0.1"/>
<path d="M207.353 35.2941L172.102 70.5455L198.535 96.9455L207.353 35.2941Z" fill="#334B46" fill-opacity="0.1"/>
<path d="M121.323 121.324L39.7058 304.412L85.1152 251.482L130.147 194.118L121.323 121.324Z" fill="#334B46" fill-opacity="0.1"/>
<path d="M39.7058 304.412L132.353 213.895L130.147 194.118L85.1152 251.482L39.7058 304.412Z" fill="#334B46" fill-opacity="0.1"/>
<path d="M112.5 57.353L121.323 121.324L130.147 194.118L185.294 123.377L112.5 57.353Z" fill="#334B46" fill-opacity="0.1"/>
<path d="M172.059 70.5882L103.677 2.20587L112.5 57.3529L185.295 123.377L130.147 194.118L132.353 213.895L178.677 168.636L225 123.377L198.529 96.9829L172.059 70.5882Z" fill="#334B46" fill-opacity="0.1"/>
<path d="M231.618 116.912L236.029 66.1765L242.647 0L207.353 35.2941L198.535 96.9455L225 123.377L231.618 116.912Z" fill="#334B46" fill-opacity="0.1"/>
<path d="M39.7058 304.412L132.353 213.895L130.147 194.118L85.1152 251.482L39.7058 304.412Z" fill="#334B46" fill-opacity="0.1"/>
<path d="M112.5 57.353L121.323 121.324L130.147 194.118L185.294 123.377L112.5 57.353Z" fill="#334B46" fill-opacity="0.1"/>
<path d="M172.059 70.5882L103.677 2.20587L112.5 57.3529L185.295 123.377L130.147 194.118L132.353 213.895L178.677 168.636L225 123.377L198.529 96.9829L172.059 70.5882Z" fill="#334B46" fill-opacity="0.1"/>
<path d="M231.618 116.912L236.029 66.1765L242.647 0L207.353 35.2941L198.535 96.9455L225 123.377L231.618 116.912Z" fill="#334B46" fill-opacity="0.1"/>
<path d="M39.7058 304.412L132.353 213.895L130.147 194.118L85.1152 251.482L39.7058 304.412Z" fill="#334B46" fill-opacity="0.1"/>
<path d="M172.059 70.5882L103.677 2.20587L112.5 57.3529L185.295 123.377L130.147 194.118L132.353 213.895L178.677 168.636L225 123.377L198.529 96.9829L172.059 70.5882Z" fill="#334B46" fill-opacity="0.1"/>
<path d="M172.059 70.5882L103.677 2.20587L112.5 57.3529L185.295 123.377L130.147 194.118L132.353 213.895L178.677 168.636L225 123.377L198.529 96.9829L172.059 70.5882Z" fill="#334B46" fill-opacity="0.1"/>
<path d="M172.059 70.5882L103.677 2.20587L112.5 57.3529L185.295 123.377L130.147 194.118L132.353 213.895L178.677 168.636L225 123.377L198.529 96.9829L172.059 70.5882Z" fill="#334B46" fill-opacity="0.1"/>
</g>
</g>
<defs>
<clipPath id="clip0">
<rect width="300" height="304.412" fill="white"/>
</clipPath>
<clipPath id="clip1">
<rect width="300" height="304.412" fill="white"/>
</clipPath>
</defs>
</svg>
